STARTFONT 2.1
FONT -Adobe-Helvetica-Bold-O-Narrow--19-140-100-100-P-88-ISO8859-1
SIZE 14 100 100
FONTBOUNDINGBOX 20 19 -3 -5

STARTPROPERTIES 26
_DEC_DEVICE_FONTNAMES "PS=Helvetica-Narrow-BoldOblique"
FONTNAME_REGISTRY ""
FAMILY_NAME "Helvetica"
FOUNDRY "Adobe"
WEIGHT_NAME "Bold"
SLANT "O"
SETWIDTH_NAME "Narrow"
ADD_STYLE_NAME ""
PIXEL_SIZE 19
POINT_SIZE 140
RESOLUTION_X 100
RESOLUTION_Y 100
SPACING "P"
AVERAGE_WIDTH 88
CHARSET_REGISTRY "ISO8859"
CHARSET_ENCODING "1"
CHARSET_COLLECTIONS "ASCII ISO8859-1 ADOBE-STANDARD"
FULL_NAME "Helvetica Narrow Bold Oblique"
COPYRIGHT "Copyright (c) 1991 Adobe Systems, Inc."
CAP_HEIGHT 14
X_HEIGHT 10
WEIGHT 10
QUAD_WIDTH 10
DEFAULT_CHAR 0
FONT_DESCENT 5
FONT_ASCENT 14
ENDPROPERTIES

CHARS 190

STARTCHAR space
ENCODING 32
SWIDTH 228 0
DWIDTH 4 0
BBX 1 1 0 0
BITMAP
00
ENDCHAR

STARTCHAR exclam
ENCODING 33
SWIDTH 273 0
DWIDTH 4 0
BBX 6 14 0 0
BITMAP
1C
1C
1C
18
38
38
30
70
70
70
00
E0
E0
E0
ENDCHAR

STARTCHAR quotedbl
ENCODING 34
SWIDTH 389 0
DWIDTH 8 0
BBX 7 5 2 9
BITMAP
EE
EE
CC
CC
88
ENDCHAR

STARTCHAR numbersign
ENCODING 35
SWIDTH 456 0
DWIDTH 9 0
BBX 9 14 1 0
BITMAP
1B00
1B00
1B00
1B00
7F80
7F80
3600
3600
FF00
FF00
6C00
6C00
6C00
6C00
ENDCHAR

STARTCHAR dollar
ENCODING 36
SWIDTH 456 0
DWIDTH 9 0
BBX 10 16 0 -2
BITMAP
0300
0F80
1FC0
36C0
66C0
6C00
7C00
3F00
0F80
0D80
D980
DB80
FF00
7E00
3000
3000
ENDCHAR

STARTCHAR percent
ENCODING 37
SWIDTH 729 0
DWIDTH 13 0
BBX 10 14 2 0
BITMAP
38C0
7CC0
CD80
CF00
FB00
7600
0C00
0C00
1B80
37C0
3CC0
6CC0
CF80
C700
ENDCHAR

STARTCHAR ampersand
ENCODING 38
SWIDTH 592 0
DWIDTH 11 0
BBX 11 14 0 0
BITMAP
0700
0F80
1DC0
19C0
1B80
0F00
1E00
3E60
7760
E3C0
E3C0
E780
7FC0
3EC0
ENDCHAR

STARTCHAR quoteright
ENCODING 39
SWIDTH 228 0
DWIDTH 4 0
BBX 4 6 1 8
BITMAP
70
70
70
30
60
C0
ENDCHAR

STARTCHAR parenleft
ENCODING 40
SWIDTH 273 0
DWIDTH 6 0
BBX 7 18 1 -4
BITMAP
06
0E
1C
18
38
30
70
70
60
E0
E0
E0
E0
E0
E0
60
70
30
ENDCHAR

STARTCHAR parenright
ENCODING 41
SWIDTH 273 0
DWIDTH 6 0
BBX 7 18 -1 -4
BITMAP
18
1C
0C
0E
0E
0E
0E
0E
0E
0C
1C
1C
18
38
30
70
E0
C0
ENDCHAR

STARTCHAR asterisk
ENCODING 42
SWIDTH 319 0
DWIDTH 7 0
BBX 7 6 1 8
BITMAP
18
7E
7E
38
FC
CC
ENDCHAR

STARTCHAR plus
ENCODING 43
SWIDTH 479 0
DWIDTH 9 0
BBX 7 8 1 0
BITMAP
18
18
18
FE
FE
30
30
30
ENDCHAR

STARTCHAR comma
ENCODING 44
SWIDTH 228 0
DWIDTH 4 0
BBX 4 6 -1 -3
BITMAP
70
70
70
30
60
C0
ENDCHAR

STARTCHAR minus
ENCODING 45
SWIDTH 479 0
DWIDTH 11 0
BBX 7 2 2 3
BITMAP
FE
FE
ENDCHAR

STARTCHAR period
ENCODING 46
SWIDTH 228 0
DWIDTH 4 0
BBX 3 3 0 0
BITMAP
E0
E0
E0
ENDCHAR

STARTCHAR slash
ENCODING 47
SWIDTH 228 0
DWIDTH 6 0
BBX 11 19 -3 -5
BITMAP
0060
00C0
00C0
0180
0180
0300
0300
0600
0600
0C00
0C00
1800
1800
3000
3000
6000
6000
C000
C000
ENDCHAR

STARTCHAR zero
ENCODING 48
SWIDTH 456 0
DWIDTH 9 0
BBX 9 14 1 0
BITMAP
1F00
3F80
3B80
7380
7380
7380
7300
6700
E700
E700
E700
EE00
FE00
7C00
ENDCHAR

STARTCHAR one
ENCODING 49
SWIDTH 456 0
DWIDTH 9 0
BBX 5 14 3 0
BITMAP
18
38
F8
F8
70
70
70
70
70
E0
E0
E0
E0
E0
ENDCHAR

STARTCHAR two
ENCODING 50
SWIDTH 456 0
DWIDTH 9 0
BBX 9 14 1 0
BITMAP
1F00
3F80
3B80
3B80
0380
0700
0F00
1E00
3C00
7800
7000
E000
FE00
FE00
ENDCHAR

STARTCHAR three
ENCODING 51
SWIDTH 456 0
DWIDTH 9 0
BBX 9 14 1 0
BITMAP
1F00
3F80
3B80
3B80
0380
0700
1F00
1E00
0700
0700
E700
EE00
FE00
7C00
ENDCHAR

STARTCHAR four
ENCODING 52
SWIDTH 456 0
DWIDTH 9 0
BBX 9 14 1 0
BITMAP
0380
0780
0780
0F80
1F00
1F00
3700
6700
6700
FF80
FF80
0E00
0E00
0E00
ENDCHAR

STARTCHAR five
ENCODING 53
SWIDTH 456 0
DWIDTH 9 0
BBX 9 14 1 0
BITMAP
3F80
3F80
3800
3800
7000
7E00
7F00
6700
0700
0700
E700
EE00
FE00
7C00
ENDCHAR

STARTCHAR six
ENCODING 54
SWIDTH 456 0
DWIDTH 9 0
BBX 9 14 1 0
BITMAP
1F00
3F80
3B80
7380
7000
7000
7E00
7F00
E700
E700
E700
EE00
FE00
7C00
ENDCHAR

STARTCHAR seven
ENCODING 55
SWIDTH 456 0
DWIDTH 9 0
BBX 8 14 2 0
BITMAP
FF
FF
07
0E
1C
1C
38
38
70
70
70
E0
E0
E0
ENDCHAR

STARTCHAR eight
ENCODING 56
SWIDTH 456 0
DWIDTH 9 0
BBX 9 14 1 0
BITMAP
0F00
3F80
3B80
7380
7700
3F00
1C00
3E00
7700
6700
E700
EE00
FE00
7C00
ENDCHAR

STARTCHAR nine
ENCODING 57
SWIDTH 456 0
DWIDTH 9 0
BBX 9 14 1 0
BITMAP
1F00
3F80
3B80
7380
7380
7380
7F00
3F00
0700
0700
E700
EE00
FE00
7C00
ENDCHAR

STARTCHAR colon
ENCODING 58
SWIDTH 273 0
DWIDTH 5 0
BBX 5 10 0 0
BITMAP
38
38
38
00
00
00
00
E0
E0
E0
ENDCHAR

STARTCHAR semicolon
ENCODING 59
SWIDTH 273 0
DWIDTH 5 0
BBX 6 13 -1 -3
BITMAP
1C
1C
1C
00
00
00
00
70
70
70
30
60
C0
ENDCHAR

STARTCHAR less
ENCODING 60
SWIDTH 479 0
DWIDTH 9 0
BBX 9 8 0 0
BITMAP
0180
0780
1E00
7800
F000
3C00
0F00
0300
ENDCHAR

STARTCHAR equal
ENCODING 61
SWIDTH 479 0
DWIDTH 9 0
BBX 8 6 1 1
BITMAP
7F
7F
00
00
FE
FE
ENDCHAR

STARTCHAR greater
ENCODING 62
SWIDTH 479 0
DWIDTH 9 0
BBX 9 8 0 0
BITMAP
6000
7800
1E00
0780
0F00
3C00
F000
C000
ENDCHAR

STARTCHAR question
ENCODING 63
SWIDTH 501 0
DWIDTH 8 0
BBX 7 14 2 0
BITMAP
7C
FE
EE
EE
0C
1C
38
70
E0
E0
00
E0
E0
E0
ENDCHAR

STARTCHAR at
ENCODING 64
SWIDTH 800 0
DWIDTH 16 0
BBX 16 17 1 -3
BITMAP
01F0
07FC
0E0E
1806
31B3
63F3
6633
C663
CC66
CCC6
CCCC
CFFC
C738
6000
7000
3FC0
0F80
ENDCHAR

STARTCHAR A
ENCODING 65
SWIDTH 592 0
DWIDTH 11 0
BBX 11 14 0 0
BITMAP
0380
0380
0780
0780
0F80
0DC0
1DC0
19C0
38C0
3FC0
7FE0
70E0
E0E0
E0E0
ENDCHAR

STARTCHAR B
ENCODING 66
SWIDTH 592 0
DWIDTH 10 0
BBX 10 14 1 0
BITMAP
3F80
3FC0
39C0
39C0
7180
7380
7F00
7F00
7380
E380
E380
E700
FF00
FE00
ENDCHAR

STARTCHAR C
ENCODING 67
SWIDTH 592 0
DWIDTH 11 0
BBX 11 14 1 0
BITMAP
0780
1FC0
3CE0
38E0
70E0
7000
7000
E000
E000
E1C0
E1C0
7380
7F80
1E00
ENDCHAR

STARTCHAR D
ENCODING 68
SWIDTH 592 0
DWIDTH 11 0
BBX 11 14 1 0
BITMAP
3F00
3FC0
39C0
38E0
70E0
70E0
70E0
71C0
71C0
E1C0
E380
E780
FF00
FC00
ENDCHAR

STARTCHAR E
ENCODING 69
SWIDTH 547 0
DWIDTH 10 0
BBX 10 14 1 0
BITMAP
3FC0
3FC0
3800
3800
7000
7000
7F00
7F00
7000
E000
E000
E000
FF00
FF00
ENDCHAR

STARTCHAR F
ENCODING 70
SWIDTH 501 0
DWIDTH 9 0
BBX 9 14 2 0
BITMAP
3F80
3F80
3800
3800
7000
7000
7E00
7E00
7000
E000
E000
E000
E000
E000
ENDCHAR

STARTCHAR G
ENCODING 71
SWIDTH 638 0
DWIDTH 12 0
BBX 12 14 1 0
BITMAP
0780
1FE0
3CE0
3870
7070
7000
7000
E3E0
E3E0
E0E0
E0C0
71C0
7FC0
1EC0
ENDCHAR

STARTCHAR H
ENCODING 72
SWIDTH 592 0
DWIDTH 11 0
BBX 11 14 1 0
BITMAP
38E0
38E0
38E0
38E0
71C0
71C0
7FC0
7FC0
71C0
E380
E380
E380
E380
E380
ENDCHAR

STARTCHAR I
ENCODING 73
SWIDTH 228 0
DWIDTH 7 0
BBX 5 14 2 0
BITMAP
38
38
38
38
70
70
70
70
70
E0
E0
E0
E0
E0
ENDCHAR

STARTCHAR J
ENCODING 74
SWIDTH 456 0
DWIDTH 9 0
BBX 9 14 1 0
BITMAP
0380
0380
0380
0380
0700
0700
0700
0700
0700
EE00
EE00
EE00
FE00
7C00
ENDCHAR

STARTCHAR K
ENCODING 75
SWIDTH 592 0
DWIDTH 10 0
BBX 10 14 1 0
BITMAP
38C0
39C0
3980
3300
7700
7600
7E00
7C00
7C00
EE00
EE00
E600
E700
E700
ENDCHAR

STARTCHAR L
ENCODING 76
SWIDTH 501 0
DWIDTH 8 0
BBX 7 14 1 0
BITMAP
38
38
38
38
70
70
70
70
70
E0
E0
E0
FE
FE
ENDCHAR

STARTCHAR M
ENCODING 77
SWIDTH 683 0
DWIDTH 14 0
BBX 14 14 1 0
BITMAP
381C
381C
383C
383C
7C78
7CF8
7CF8
7DB8
6FB8
EF70
E770
E670
E670
E670
ENDCHAR

STARTCHAR N
ENCODING 78
SWIDTH 592 0
DWIDTH 11 0
BBX 11 14 1 0
BITMAP
38E0
38E0
38E0
3CE0
7DC0
7DC0
7DC0
77C0
77C0
E780
E780
E380
E380
E380
ENDCHAR

STARTCHAR O
ENCODING 79
SWIDTH 638 0
DWIDTH 12 0
BBX 12 14 1 0
BITMAP
0780
1FE0
3CE0
3870
7070
7070
7070
E0E0
E0E0
E0E0
E1C0
73C0
7F80
1E00
ENDCHAR

STARTCHAR P
ENCODING 80
SWIDTH 547 0
DWIDTH 10 0
BBX 11 14 1 0
BITMAP
3F80
3FC0
39E0
38E0
38E0
71C0
7FC0
7F00
7000
7000
E000
E000
E000
E000
ENDCHAR

STARTCHAR Q
ENCODING 81
SWIDTH 638 0
DWIDTH 12 0
BBX 12 14 1 0
BITMAP
0780
1FE0
3CE0
3870
7070
7070
7070
E0E0
E0E0
E6E0
E7C0
7380
7FC0
1EC0
ENDCHAR

STARTCHAR R
ENCODING 82
SWIDTH 592 0
DWIDTH 11 0
BBX 11 14 1 0
BITMAP
3F80
3FC0
39E0
38E0
38E0
71C0
7FC0
7F00
7700
7380
E380
E380
E380
E3C0
ENDCHAR

STARTCHAR S
ENCODING 83
SWIDTH 547 0
DWIDTH 10 0
BBX 11 14 0 0
BITMAP
07C0
1FE0
1CE0
38E0
3800
3C00
1F00
0F80
03C0
01C0
E1C0
E380
7F80
3E00
ENDCHAR

STARTCHAR T
ENCODING 84
SWIDTH 501 0
DWIDTH 9 0
BBX 9 14 2 0
BITMAP
FF80
FF80
1C00
1C00
1C00
3800
3800
3800
3800
3800
7000
7000
7000
7000
ENDCHAR

STARTCHAR U
ENCODING 85
SWIDTH 592 0
DWIDTH 11 0
BBX 11 14 1 0
BITMAP
38E0
38E0
38E0
38E0
71C0
71C0
71C0
71C0
E1C0
E380
E380
E380
7F00
3E00
ENDCHAR

STARTCHAR V
ENCODING 86
SWIDTH 547 0
DWIDTH 11 0
BBX 11 14 2 0
BITMAP
E0E0
E0E0
E0C0
E1C0
E180
7380
7300
7700
7600
7E00
3C00
3C00
3800
3800
ENDCHAR

STARTCHAR W
ENCODING 87
SWIDTH 774 0
DWIDTH 15 0
BBX 15 14 2 0
BITMAP
E38E
E38E
E38E
E38C
E79C
E798
EFB8
6DB0
7DF0
79E0
79E0
71C0
71C0
71C0
ENDCHAR

STARTCHAR X
ENCODING 88
SWIDTH 547 0
DWIDTH 11 0
BBX 11 14 1 0
BITMAP
38E0
38E0
39C0
1DC0
1F80
0F00
0F00
1E00
1E00
3F00
7700
7380
E380
E380
ENDCHAR

STARTCHAR Y
ENCODING 89
SWIDTH 547 0
DWIDTH 11 0
BBX 11 14 2 0
BITMAP
E0E0
E0E0
E1C0
7180
7380
3F00
3E00
1C00
1C00
1800
3800
3800
3800
3800
ENDCHAR

STARTCHAR Z
ENCODING 90
SWIDTH 501 0
DWIDTH 11 0
BBX 11 14 1 0
BITMAP
1FE0
1FE0
00E0
01C0
0380
0700
0E00
0E00
1C00
3800
7000
E000
FF80
FF80
ENDCHAR

STARTCHAR bracketleft
ENCODING 91
SWIDTH 273 0
DWIDTH 5 0
BBX 6 18 0 -4
BITMAP
1C
1C
18
18
30
30
30
30
30
60
60
60
60
60
C0
C0
E0
E0
ENDCHAR

STARTCHAR backslash
ENCODING 92
SWIDTH 228 0
DWIDTH 6 0
BBX 3 14 2 0
BITMAP
C0
C0
C0
C0
C0
C0
C0
60
60
60
60
60
60
60
ENDCHAR

STARTCHAR bracketright
ENCODING 93
SWIDTH 273 0
DWIDTH 5 0
BBX 6 18 -1 -4
BITMAP
1C
1C
0C
0C
18
18
18
18
18
30
30
30
30
30
60
60
E0
E0
ENDCHAR

STARTCHAR asciicircum
ENCODING 94
SWIDTH 479 0
DWIDTH 9 0
BBX 6 7 2 7
BITMAP
1C
3C
3C
6C
6C
CC
CC
ENDCHAR

STARTCHAR underscore
ENCODING 95
SWIDTH 456 0
DWIDTH 8 0
BBX 8 2 -1 -3
BITMAP
FF
FF
ENDCHAR

STARTCHAR quoteleft
ENCODING 96
SWIDTH 228 0
DWIDTH 4 0
BBX 4 6 2 8
BITMAP
30
60
C0
E0
E0
E0
ENDCHAR

STARTCHAR a
ENCODING 97
SWIDTH 456 0
DWIDTH 8 0
BBX 8 10 0 0
BITMAP
3E
7F
67
0F
7F
E6
CE
CE
FE
77
ENDCHAR

STARTCHAR b
ENCODING 98
SWIDTH 501 0
DWIDTH 9 0
BBX 9 14 0 0
BITMAP
3800
3800
3800
3800
7E00
7F00
7380
7380
6380
E380
E700
E700
FE00
DC00
ENDCHAR

STARTCHAR c
ENCODING 99
SWIDTH 456 0
DWIDTH 8 0
BBX 8 10 0 0
BITMAP
1E
3F
73
70
E0
E0
E0
E6
7E
3C
ENDCHAR

STARTCHAR d
ENCODING 100
SWIDTH 501 0
DWIDTH 9 0
BBX 10 14 0 0
BITMAP
01C0
01C0
01C0
01C0
1F80
3F80
7380
7380
E380
E300
E700
E700
7F00
3B00
ENDCHAR

STARTCHAR e
ENCODING 101
SWIDTH 456 0
DWIDTH 8 0
BBX 8 10 0 0
BITMAP
1E
3F
73
63
FF
FE
E0
E6
7E
3C
ENDCHAR

STARTCHAR f
ENCODING 102
SWIDTH 273 0
DWIDTH 6 0
BBX 6 14 1 0
BITMAP
1C
3C
38
38
FC
FC
70
70
70
E0
E0
E0
E0
E0
ENDCHAR

STARTCHAR g
ENCODING 103
SWIDTH 501 0
DWIDTH 9 0
BBX 10 14 -1 -4
BITMAP
0EC0
1FC0
39C0
39C0
71C0
7180
7380
7380
3F80
1F80
0700
C700
FE00
7C00
ENDCHAR

STARTCHAR h
ENCODING 104
SWIDTH 501 0
DWIDTH 9 0
BBX 9 14 0 0
BITMAP
3800
3800
3800
3800
7700
7F80
7B80
7380
7380
E700
E700
E700
E700
E700
ENDCHAR

STARTCHAR i
ENCODING 105
SWIDTH 228 0
DWIDTH 6 0
BBX 5 14 1 0
BITMAP
38
38
38
00
70
70
70
70
70
E0
E0
E0
E0
E0
ENDCHAR

STARTCHAR j
ENCODING 106
SWIDTH 228 0
DWIDTH 6 0
BBX 7 18 -1 -4
BITMAP
0E
0E
0E
00
1C
1C
1C
1C
1C
38
38
38
38
38
70
70
F0
E0
ENDCHAR

STARTCHAR k
ENCODING 107
SWIDTH 456 0
DWIDTH 8 0
BBX 9 14 0 0
BITMAP
3800
3800
3800
3800
7380
7380
7700
7E00
7C00
FC00
EE00
EE00
E700
E700
ENDCHAR

STARTCHAR l
ENCODING 108
SWIDTH 228 0
DWIDTH 6 0
BBX 5 14 1 0
BITMAP
38
38
38
38
70
70
70
70
70
E0
E0
E0
E0
E0
ENDCHAR

STARTCHAR m
ENCODING 109
SWIDTH 729 0
DWIDTH 14 0
BBX 14 10 0 0
BITMAP
6F78
7FFC
7BDC
739C
739C
E738
E738
E738
E738
E738
ENDCHAR

STARTCHAR n
ENCODING 110
SWIDTH 501 0
DWIDTH 9 0
BBX 9 10 0 0
BITMAP
6F00
7F80
7B80
7380
7380
E700
E700
E700
E700
E700
ENDCHAR

STARTCHAR o
ENCODING 111
SWIDTH 501 0
DWIDTH 9 0
BBX 9 10 0 0
BITMAP
1E00
3F00
7380
7380
E380
E380
E700
E700
7E00
3C00
ENDCHAR

STARTCHAR p
ENCODING 112
SWIDTH 501 0
DWIDTH 9 0
BBX 10 14 -1 -4
BITMAP
3700
3F80
39C0
39C0
31C0
71C0
7380
7380
7F00
7E00
E000
E000
E000
E000
ENDCHAR

STARTCHAR q
ENCODING 113
SWIDTH 501 0
DWIDTH 9 0
BBX 9 14 0 -4
BITMAP
1D80
3F80
7380
7380
E380
E300
E700
E700
7F00
3F00
0E00
0E00
0E00
0E00
ENDCHAR

STARTCHAR r
ENCODING 114
SWIDTH 319 0
DWIDTH 7 0
BBX 6 10 1 0
BITMAP
6C
7C
78
70
70
E0
E0
E0
E0
E0
ENDCHAR

STARTCHAR s
ENCODING 115
SWIDTH 456 0
DWIDTH 7 0
BBX 7 10 0 0
BITMAP
3C
7E
66
70
78
3C
1C
CC
FC
78
ENDCHAR

STARTCHAR t
ENCODING 116
SWIDTH 273 0
DWIDTH 6 0
BBX 6 13 1 0
BITMAP
38
38
38
FC
FC
70
70
70
E0
E0
E0
F0
70
ENDCHAR

STARTCHAR u
ENCODING 117
SWIDTH 501 0
DWIDTH 9 0
BBX 9 10 0 0
BITMAP
7380
7380
7380
7380
7380
E700
E700
EF00
FF00
7B00
ENDCHAR

STARTCHAR v
ENCODING 118
SWIDTH 456 0
DWIDTH 8 0
BBX 9 10 0 0
BITMAP
E380
E380
E300
6700
6600
6E00
7C00
3C00
3800
3800
ENDCHAR

STARTCHAR w
ENCODING 119
SWIDTH 638 0
DWIDTH 10 0
BBX 11 10 0 0
BITMAP
C660
C660
EEC0
EEC0
6EC0
7F80
7F80
7700
7700
7700
ENDCHAR

STARTCHAR x
ENCODING 120
SWIDTH 456 0
DWIDTH 8 0
BBX 8 10 0 0
BITMAP
73
73
36
3E
1C
38
7C
6C
CE
CE
ENDCHAR

STARTCHAR y
ENCODING 121
SWIDTH 456 0
DWIDTH 7 0
BBX 10 14 -2 -4
BITMAP
39C0
39C0
3980
1B80
1B00
1F00
1E00
1E00
1C00
1C00
3800
3800
F000
E000
ENDCHAR

STARTCHAR z
ENCODING 122
SWIDTH 410 0
DWIDTH 8 0
BBX 8 10 0 0
BITMAP
7F
7F
07
0E
1C
38
70
E0
FE
FE
ENDCHAR

STARTCHAR braceleft
ENCODING 123
SWIDTH 319 0
DWIDTH 6 0
BBX 7 18 1 -4
BITMAP
0E
1C
18
18
30
30
30
70
E0
C0
60
60
60
60
C0
C0
E0
70
ENDCHAR

STARTCHAR bar
ENCODING 124
SWIDTH 230 0
DWIDTH 4 0
BBX 5 18 0 -4
BITMAP
18
18
18
18
30
30
30
30
30
60
60
60
60
C0
C0
C0
C0
C0
ENDCHAR

STARTCHAR braceright
ENCODING 125
SWIDTH 319 0
DWIDTH 6 0
BBX 7 18 -2 -4
BITMAP
1C
0E
06
06
0C
0C
0C
0C
06
0E
1C
18
18
18
30
30
70
E0
ENDCHAR

STARTCHAR asciitilde
ENCODING 126
SWIDTH 479 0
DWIDTH 9 0
BBX 8 3 1 3
BITMAP
73
FF
CE
ENDCHAR

STARTCHAR exclamdown
ENCODING 161
SWIDTH 273 0
DWIDTH 6 0
BBX 6 14 0 -4
BITMAP
1C
1C
1C
00
38
38
38
30
70
70
60
E0
E0
E0
ENDCHAR

STARTCHAR cent
ENCODING 162
SWIDTH 456 0
DWIDTH 9 0
BBX 9 14 1 -2
BITMAP
0180
0180
1F00
3F80
7380
7600
E400
EC00
E800
FB00
7F00
3E00
6000
6000
ENDCHAR

STARTCHAR sterling
ENCODING 163
SWIDTH 456 0
DWIDTH 9 0
BBX 10 14 0 0
BITMAP
0F00
1F80
39C0
38C0
3800
1C00
7F00
7F00
1C00
1C00
1800
3C80
FF80
E700
ENDCHAR

STARTCHAR currency
ENCODING 164
SWIDTH 456 0
DWIDTH 9 0
BBX 8 9 1 2
BITMAP
63
7F
66
C3
C3
C3
66
FE
C6
ENDCHAR

STARTCHAR yen
ENCODING 165
SWIDTH 456 0
DWIDTH 9 0
BBX 10 14 1 0
BITMAP
E1C0
E1C0
6180
7300
3300
3E00
1C00
7F00
1800
1800
FE00
3800
3800
3800
ENDCHAR

STARTCHAR brokenbar
ENCODING 166
SWIDTH 230 0
DWIDTH 4 0
BBX 5 18 0 -4
BITMAP
18
18
18
18
30
30
30
00
00
00
60
60
60
60
C0
C0
C0
C0
ENDCHAR

STARTCHAR section
ENCODING 167
SWIDTH 456 0
DWIDTH 9 0
BBX 11 18 -1 -4
BITMAP
0780
0FC0
1CE0
1C60
1E00
0F00
1F80
33C0
71C0
71C0
7980
3F00
1E00
0F00
C700
E700
7E00
3C00
ENDCHAR

STARTCHAR dieresis
ENCODING 168
SWIDTH 273 0
DWIDTH 5 0
BBX 5 2 1 11
BITMAP
D8
D8
ENDCHAR

STARTCHAR copyright
ENCODING 169
SWIDTH 604 0
DWIDTH 15 0
BBX 14 14 1 0
BITMAP
07C0
1FF0
3838
6398
6FCC
CCCC
D80C
D80C
D8CC
CF98
6718
7070
3FE0
0F80
ENDCHAR

STARTCHAR ordfeminine
ENCODING 170
SWIDTH 303 0
DWIDTH 6 0
BBX 6 8 2 6
BITMAP
38
6C
1C
6C
D8
E8
00
F8
ENDCHAR

STARTCHAR guillemotleft
ENCODING 171
SWIDTH 456 0
DWIDTH 8 0
BBX 8 6 0 2
BITMAP
1B
36
6C
D8
6C
36
ENDCHAR

STARTCHAR logicalnot
ENCODING 172
SWIDTH 479 0
DWIDTH 11 0
BBX 7 5 3 2
BITMAP
FE
FE
04
0C
0C
ENDCHAR

STARTCHAR hyphen
ENCODING 173
SWIDTH 273 0
DWIDTH 5 0
BBX 4 2 0 4
BITMAP
F0
F0
ENDCHAR

STARTCHAR registered
ENCODING 174
SWIDTH 604 0
DWIDTH 15 0
BBX 14 14 1 0
BITMAP
07C0
1FF0
3838
67D8
67EC
C46C
CCCC
CF8C
CF8C
D8D8
78D8
7070
3FE0
0F80
ENDCHAR

STARTCHAR macron
ENCODING 175
SWIDTH 273 0
DWIDTH 5 0
BBX 5 2 1 11
BITMAP
F8
F8
ENDCHAR

STARTCHAR degree
ENCODING 176
SWIDTH 328 0
DWIDTH 7 0
BBX 5 6 2 8
BITMAP
70
C8
88
88
98
70
ENDCHAR

STARTCHAR plusminus
ENCODING 177
SWIDTH 479 0
DWIDTH 9 0
BBX 8 11 0 0
BITMAP
0C
0C
0C
7F
7F
18
18
18
00
FE
FE
ENDCHAR

STARTCHAR twosuperior
ENCODING 178
SWIDTH 273 0
DWIDTH 5 0
BBX 6 8 1 6
BITMAP
38
6C
0C
18
30
60
C0
F8
ENDCHAR

STARTCHAR threesuperior
ENCODING 179
SWIDTH 273 0
DWIDTH 5 0
BBX 7 8 0 6
BITMAP
1C
36
06
38
0C
0C
CC
78
ENDCHAR

STARTCHAR acute
ENCODING 180
SWIDTH 273 0
DWIDTH 6 0
BBX 5 3 2 11
BITMAP
38
70
C0
ENDCHAR

STARTCHAR mu
ENCODING 181
SWIDTH 501 0
DWIDTH 9 0
BBX 10 14 -1 -4
BITMAP
39C0
39C0
39C0
39C0
39C0
7380
7380
7780
7F80
FD80
E000
E000
E000
E000
ENDCHAR

STARTCHAR paragraph
ENCODING 182
SWIDTH 456 0
DWIDTH 11 0
BBX 9 14 1 0
BITMAP
0F80
3F80
7D80
7D80
FB00
FB00
7B00
1B00
1B00
3600
3600
3600
3600
3600
ENDCHAR

STARTCHAR periodcentered
ENCODING 183
SWIDTH 228 0
DWIDTH 4 0
BBX 3 3 1 5
BITMAP
E0
E0
E0
ENDCHAR

STARTCHAR cedilla
ENCODING 184
SWIDTH 273 0
DWIDTH 5 0
BBX 4 4 -1 -4
BITMAP
20
70
30
E0
ENDCHAR

STARTCHAR onesuperior
ENCODING 185
SWIDTH 273 0
DWIDTH 5 0
BBX 4 8 2 6
BITMAP
30
F0
20
60
60
40
C0
C0
ENDCHAR

STARTCHAR ordmasculine
ENCODING 186
SWIDTH 299 0
DWIDTH 6 0
BBX 6 8 2 6
BITMAP
38
7C
CC
CC
F8
70
00
F8
ENDCHAR

STARTCHAR guillemotright
ENCODING 187
SWIDTH 456 0
DWIDTH 8 0
BBX 8 6 0 2
BITMAP
6C
36
1B
36
6C
D8
ENDCHAR

STARTCHAR onequarter
ENCODING 188
SWIDTH 684 0
DWIDTH 14 0
BBX 11 14 2 0
BITMAP
30C0
F080
2100
6300
6200
4600
C460
C8E0
1960
12C0
34C0
27E0
4180
C180
ENDCHAR

STARTCHAR onehalf
ENCODING 189
SWIDTH 684 0
DWIDTH 14 0
BBX 12 14 2 0
BITMAP
30C0
F080
2100
6300
6200
4600
C4E0
C9B0
1830
1060
30C0
2180
4300
C3E0
ENDCHAR

STARTCHAR threequarters
ENCODING 190
SWIDTH 684 0
DWIDTH 14 0
BBX 13 14 0 0
BITMAP
1C30
3620
0640
38C0
0C80
0D80
CD18
7A38
0658
04B0
0D30
09F8
1060
3060
ENDCHAR

STARTCHAR questiondown
ENCODING 191
SWIDTH 501 0
DWIDTH 9 0
BBX 7 14 0 -4
BITMAP
0E
0E
0E
00
0E
0E
1C
38
70
60
EE
EE
FE
7C
ENDCHAR

STARTCHAR Agrave
ENCODING 192
SWIDTH 592 0
DWIDTH 11 0
BBX 11 14 0 0
BITMAP
0700
0380
00C0
0000
0380
0780
0780
0DC0
18C0
1FC0
3FC0
70E0
60E0
E0E0
ENDCHAR

STARTCHAR Aacute
ENCODING 193
SWIDTH 592 0
DWIDTH 11 0
BBX 11 14 0 0
BITMAP
01C0
0380
0600
0000
0380
0780
0780
0DC0
18C0
1FC0
3FC0
70E0
60E0
E0E0
ENDCHAR

STARTCHAR Acircumflex
ENCODING 194
SWIDTH 592 0
DWIDTH 11 0
BBX 11 14 0 0
BITMAP
01C0
03C0
0660
0000
0380
0780
0780
0DC0
18C0
1FC0
3FC0
70E0
60E0
E0E0
ENDCHAR

STARTCHAR Atilde
ENCODING 195
SWIDTH 592 0
DWIDTH 11 0
BBX 11 14 0 0
BITMAP
0320
07E0
04C0
0000
0380
0780
0780
0DC0
18C0
1FC0
3FC0
70E0
60E0
E0E0
ENDCHAR

STARTCHAR Adieresis
ENCODING 196
SWIDTH 592 0
DWIDTH 11 0
BBX 11 13 0 0
BITMAP
06C0
06C0
0000
0380
0780
0780
0DC0
18C0
1FC0
3FC0
70E0
60E0
E0E0
ENDCHAR

STARTCHAR Aring
ENCODING 197
SWIDTH 592 0
DWIDTH 11 0
BBX 11 14 0 0
BITMAP
0380
0640
04C0
0380
0380
0780
0780
0DC0
18C0
1FC0
3FC0
70E0
60E0
E0E0
ENDCHAR

STARTCHAR AE
ENCODING 198
SWIDTH 820 0
DWIDTH 15 0
BBX 16 14 0 0
BITMAP
03FF
03FF
07E0
07E0
0FC0
0DC0
1DFC
19FC
39C0
3FC0
7F80
7380
E3FC
E3FC
ENDCHAR

STARTCHAR Ccedilla
ENCODING 199
SWIDTH 592 0
DWIDTH 11 0
BBX 11 18 1 -4
BITMAP
0780
1FC0
3CE0
38E0
70E0
7000
7000
E000
E000
E1C0
E1C0
7380
7F80
1E00
0800
1C00
0C00
3800
ENDCHAR

STARTCHAR Egrave
ENCODING 200
SWIDTH 547 0
DWIDTH 10 0
BBX 10 14 1 0
BITMAP
1C00
0E00
0300
0000
3FC0
3FC0
3800
7000
7F00
7F00
7000
E000
FF00
FF00
ENDCHAR

STARTCHAR Eacute
ENCODING 201
SWIDTH 547 0
DWIDTH 10 0
BBX 10 14 1 0
BITMAP
0380
0700
0C00
0000
3FC0
3FC0
3800
7000
7F00
7F00
7000
E000
FF00
FF00
ENDCHAR

STARTCHAR Ecircumflex
ENCODING 202
SWIDTH 547 0
DWIDTH 10 0
BBX 10 14 1 0
BITMAP
0700
0F00
1980
0000
3FC0
3FC0
3800
7000
7F00
7F00
7000
E000
FF00
FF00
ENDCHAR

STARTCHAR Edieresis
ENCODING 203
SWIDTH 547 0
DWIDTH 10 0
BBX 10 13 1 0
BITMAP
0D80
0D80
0000
3FC0
3FC0
3800
7000
7F00
7F00
7000
E000
FF00
FF00
ENDCHAR

STARTCHAR Igrave
ENCODING 204
SWIDTH 228 0
DWIDTH 7 0
BBX 5 14 2 0
BITMAP
E0
70
18
00
70
70
70
70
70
E0
E0
E0
E0
E0
ENDCHAR

STARTCHAR Iacute
ENCODING 205
SWIDTH 228 0
DWIDTH 7 0
BBX 6 14 2 0
BITMAP
1C
38
60
00
70
70
70
70
70
E0
E0
E0
E0
E0
ENDCHAR

STARTCHAR Icircumflex
ENCODING 206
SWIDTH 228 0
DWIDTH 7 0
BBX 6 14 2 0
BITMAP
38
78
CC
00
70
70
70
70
70
E0
E0
E0
E0
E0
ENDCHAR

STARTCHAR Idieresis
ENCODING 207
SWIDTH 228 0
DWIDTH 7 0
BBX 5 13 2 0
BITMAP
D8
D8
00
70
70
70
70
70
E0
E0
E0
E0
E0
ENDCHAR

STARTCHAR Eth
ENCODING 208
SWIDTH 592 0
DWIDTH 11 0
BBX 11 14 1 0
BITMAP
3F00
3FC0
39C0
38E0
70E0
70E0
FCE0
FDC0
71C0
E1C0
E380
E780
FF00
FC00
ENDCHAR

STARTCHAR Ntilde
ENCODING 209
SWIDTH 592 0
DWIDTH 11 0
BBX 10 14 1 0
BITMAP
0C80
1F80
1300
0000
71C0
71C0
79C0
79C0
7DC0
EF80
E780
E780
E380
E380
ENDCHAR

STARTCHAR Ograve
ENCODING 210
SWIDTH 638 0
DWIDTH 12 0
BBX 11 14 1 0
BITMAP
0E00
0700
0180
0000
0F80
3FC0
79E0
70E0
E0E0
E0E0
E1C0
F3C0
7F80
3E00
ENDCHAR

STARTCHAR Oacute
ENCODING 211
SWIDTH 638 0
DWIDTH 12 0
BBX 11 14 1 0
BITMAP
01C0
0380
0600
0000
0F80
3FC0
79E0
70E0
E0E0
E0E0
E1C0
F3C0
7F80
3E00
ENDCHAR

STARTCHAR Ocircumflex
ENCODING 212
SWIDTH 638 0
DWIDTH 12 0
BBX 11 14 1 0
BITMAP
0380
0780
0CC0
0000
0F80
3FC0
79E0
70E0
E0E0
E0E0
E1C0
F3C0
7F80
3E00
ENDCHAR

STARTCHAR Otilde
ENCODING 213
SWIDTH 638 0
DWIDTH 12 0
BBX 11 14 1 0
BITMAP
0640
0FC0
0980
0000
0F80
3FC0
79E0
70E0
E0E0
E0E0
E1C0
F3C0
7F80
3E00
ENDCHAR

STARTCHAR Odieresis
ENCODING 214
SWIDTH 638 0
DWIDTH 12 0
BBX 11 13 1 0
BITMAP
0D80
0D80
0000
0F80
3FC0
79E0
70E0
E0E0
E0E0
E1C0
F3C0
7F80
3E00
ENDCHAR

STARTCHAR multiply
ENCODING 215
SWIDTH 479 0
DWIDTH 9 0
BBX 9 8 0 0
BITMAP
6180
3300
3600
1C00
1C00
3600
6600
C300
ENDCHAR

STARTCHAR Oslash
ENCODING 216
SWIDTH 638 0
DWIDTH 12 0
BBX 12 14 1 0
BITMAP
07B0
1FF0
3CE0
39F0
71F0
7370
7670
E6E0
ECE0
F8E0
F9C0
73C0
FF80
DE00
ENDCHAR

STARTCHAR Ugrave
ENCODING 217
SWIDTH 592 0
DWIDTH 11 0
BBX 10 14 1 0
BITMAP
1C00
0E00
0300
0000
71C0
71C0
71C0
71C0
E1C0
E380
E380
E380
7F00
3E00
ENDCHAR

STARTCHAR Uacute
ENCODING 218
SWIDTH 592 0
DWIDTH 11 0
BBX 10 14 1 0
BITMAP
0380
0700
0C00
0000
71C0
71C0
71C0
71C0
E1C0
E380
E380
E380
7F00
3E00
ENDCHAR

STARTCHAR Ucircumflex
ENCODING 219
SWIDTH 592 0
DWIDTH 11 0
BBX 10 14 1 0
BITMAP
0700
0F00
1980
0000
71C0
71C0
71C0
71C0
E1C0
E380
E380
E380
7F00
3E00
ENDCHAR

STARTCHAR Udieresis
ENCODING 220
SWIDTH 592 0
DWIDTH 11 0
BBX 10 13 1 0
BITMAP
1B00
1B00
0000
71C0
71C0
71C0
71C0
E1C0
E380
E380
E380
7F00
3E00
ENDCHAR

STARTCHAR Yacute
ENCODING 221
SWIDTH 547 0
DWIDTH 11 0
BBX 10 14 2 0
BITMAP
0380
0700
0C00
0000
E1C0
E1C0
7380
3700
3E00
1C00
1800
3800
3800
3800
ENDCHAR

STARTCHAR Thorn
ENCODING 222
SWIDTH 547 0
DWIDTH 10 0
BBX 10 14 1 0
BITMAP
3800
3800
3800
3F00
3F80
73C0
71C0
71C0
7380
7F80
FE00
E000
E000
E000
ENDCHAR

STARTCHAR germandbls
ENCODING 223
SWIDTH 501 0
DWIDTH 9 0
BBX 10 14 0 0
BITMAP
0F00
1F80
39C0
39C0
31C0
7380
7700
7700
7380
6380
E380
E700
EF00
EC00
ENDCHAR

STARTCHAR agrave
ENCODING 224
SWIDTH 456 0
DWIDTH 8 0
BBX 8 14 0 0
BITMAP
38
1C
06
00
3E
7F
67
0F
7F
E6
CE
CE
FE
77
ENDCHAR

STARTCHAR aacute
ENCODING 225
SWIDTH 456 0
DWIDTH 8 0
BBX 8 14 0 0
BITMAP
07
0E
18
00
3E
7F
67
0F
7F
E6
CE
CE
FE
77
ENDCHAR

STARTCHAR acircumflex
ENCODING 226
SWIDTH 456 0
DWIDTH 8 0
BBX 8 14 0 0
BITMAP
0E
1E
33
00
3E
7F
67
0F
7F
E6
CE
CE
FE
77
ENDCHAR

STARTCHAR atilde
ENCODING 227
SWIDTH 456 0
DWIDTH 8 0
BBX 8 14 0 0
BITMAP
19
3F
26
00
3E
7F
67
0F
7F
E6
CE
CE
FE
77
ENDCHAR

STARTCHAR adieresis
ENCODING 228
SWIDTH 456 0
DWIDTH 8 0
BBX 8 13 0 0
BITMAP
1B
1B
00
3E
7F
67
0F
7F
E6
CE
CE
FE
77
ENDCHAR

STARTCHAR aring
ENCODING 229
SWIDTH 456 0
DWIDTH 8 0
BBX 8 14 0 0
BITMAP
0E
19
13
0E
3E
7F
67
0F
7F
E6
CE
CE
FE
77
ENDCHAR

STARTCHAR ae
ENCODING 230
SWIDTH 729 0
DWIDTH 13 0
BBX 13 10 0 0
BITMAP
3CF0
7FF8
6798
0F18
7FF8
E7F0
CE00
CE30
FBF0
71E0
ENDCHAR

STARTCHAR ccedilla
ENCODING 231
SWIDTH 456 0
DWIDTH 8 0
BBX 8 14 0 -4
BITMAP
1E
3F
73
70
E0
E0
E0
E6
7E
3C
10
38
18
70
ENDCHAR

STARTCHAR egrave
ENCODING 232
SWIDTH 456 0
DWIDTH 8 0
BBX 8 14 0 0
BITMAP
38
1C
06
00
1E
3F
73
63
FF
FE
E0
E6
7E
3C
ENDCHAR

STARTCHAR eacute
ENCODING 233
SWIDTH 456 0
DWIDTH 8 0
BBX 8 14 0 0
BITMAP
07
0E
18
00
1E
3F
73
63
FF
FE
E0
E6
7E
3C
ENDCHAR

STARTCHAR ecircumflex
ENCODING 234
SWIDTH 456 0
DWIDTH 8 0
BBX 8 14 0 0
BITMAP
0E
1E
33
00
1E
3F
73
63
FF
FE
E0
E6
7E
3C
ENDCHAR

STARTCHAR edieresis
ENCODING 235
SWIDTH 456 0
DWIDTH 8 0
BBX 8 13 0 0
BITMAP
1B
1B
00
1E
3F
73
63
FF
FE
E0
E6
7E
3C
ENDCHAR

STARTCHAR igrave
ENCODING 236
SWIDTH 228 0
DWIDTH 6 0
BBX 5 14 1 0
BITMAP
E0
70
18
00
70
70
70
70
70
E0
E0
E0
E0
E0
ENDCHAR

STARTCHAR iacute
ENCODING 237
SWIDTH 228 0
DWIDTH 6 0
BBX 6 14 1 0
BITMAP
1C
38
60
00
70
70
70
70
70
E0
E0
E0
E0
E0
ENDCHAR

STARTCHAR icircumflex
ENCODING 238
SWIDTH 228 0
DWIDTH 6 0
BBX 6 14 1 0
BITMAP
38
78
CC
00
70
70
70
70
70
E0
E0
E0
E0
E0
ENDCHAR

STARTCHAR idieresis
ENCODING 239
SWIDTH 228 0
DWIDTH 6 0
BBX 5 13 1 0
BITMAP
D8
D8
00
70
70
70
70
70
E0
E0
E0
E0
E0
ENDCHAR

STARTCHAR eth
ENCODING 240
SWIDTH 501 0
DWIDTH 9 0
BBX 9 14 0 0
BITMAP
3200
1C00
1C00
2600
1F00
3F00
7380
7380
E380
E380
E700
E700
7E00
3C00
ENDCHAR

STARTCHAR ntilde
ENCODING 241
SWIDTH 501 0
DWIDTH 9 0
BBX 9 14 0 0
BITMAP
0C80
1F80
1300
0000
6F00
7F80
7B80
7380
7380
E700
E700
E700
E700
E700
ENDCHAR

STARTCHAR ograve
ENCODING 242
SWIDTH 501 0
DWIDTH 9 0
BBX 9 14 0 0
BITMAP
1C00
0E00
0300
0000
1E00
3F00
7380
7380
E380
E380
E700
E700
7E00
3C00
ENDCHAR

STARTCHAR oacute
ENCODING 243
SWIDTH 501 0
DWIDTH 9 0
BBX 9 14 0 0
BITMAP
0700
0E00
1800
0000
1E00
3F00
7380
7380
E380
E380
E700
E700
7E00
3C00
ENDCHAR

STARTCHAR ocircumflex
ENCODING 244
SWIDTH 501 0
DWIDTH 9 0
BBX 9 14 0 0
BITMAP
0700
0F00
1980
0000
1E00
3F00
7380
7380
E380
E380
E700
E700
7E00
3C00
ENDCHAR

STARTCHAR otilde
ENCODING 245
SWIDTH 501 0
DWIDTH 9 0
BBX 9 14 0 0
BITMAP
0C80
1F80
1300
0000
1E00
3F00
7380
7380
E380
E380
E700
E700
7E00
3C00
ENDCHAR

STARTCHAR odieresis
ENCODING 246
SWIDTH 501 0
DWIDTH 9 0
BBX 9 13 0 0
BITMAP
1B00
1B00
0000
1E00
3F00
7380
7380
E380
E380
E700
E700
7E00
3C00
ENDCHAR

STARTCHAR divide
ENCODING 247
SWIDTH 479 0
DWIDTH 9 0
BBX 7 8 1 0
BITMAP
18
18
00
FE
FE
00
30
30
ENDCHAR

STARTCHAR oslash
ENCODING 248
SWIDTH 501 0
DWIDTH 9 0
BBX 9 10 0 0
BITMAP
1D80
3F00
7380
7780
EF80
FB80
F700
E700
7E00
DC00
ENDCHAR

STARTCHAR ugrave
ENCODING 249
SWIDTH 501 0
DWIDTH 9 0
BBX 9 14 0 0
BITMAP
3800
1C00
0600
0000
7380
7380
7380
7380
7380
E700
E700
EF00
FF00
7B00
ENDCHAR

STARTCHAR uacute
ENCODING 250
SWIDTH 501 0
DWIDTH 9 0
BBX 9 14 0 0
BITMAP
0700
0E00
1800
0000
7380
7380
7380
7380
7380
E700
E700
EF00
FF00
7B00
ENDCHAR

STARTCHAR ucircumflex
ENCODING 251
SWIDTH 501 0
DWIDTH 9 0
BBX 9 14 0 0
BITMAP
0E00
1E00
3300
0000
7380
7380
7380
7380
7380
E700
E700
EF00
FF00
7B00
ENDCHAR

STARTCHAR udieresis
ENCODING 252
SWIDTH 501 0
DWIDTH 9 0
BBX 9 13 0 0
BITMAP
1B00
1B00
0000
7380
7380
7380
7380
7380
E700
E700
EF00
FF00
7B00
ENDCHAR

STARTCHAR yacute
ENCODING 253
SWIDTH 456 0
DWIDTH 7 0
BBX 10 18 -2 -4
BITMAP
01C0
0380
0600
0000
39C0
39C0
3980
1B80
1B00
1F00
1E00
1E00
1C00
1C00
3800
3800
F000
E000
ENDCHAR

STARTCHAR thorn
ENCODING 254
SWIDTH 501 0
DWIDTH 9 0
BBX 10 18 -1 -4
BITMAP
1C00
1C00
1C00
1C00
1F00
3F80
39C0
39C0
31C0
71C0
7380
7380
7F00
7E00
E000
E000
E000
E000
ENDCHAR

STARTCHAR ydieresis
ENCODING 255
SWIDTH 456 0
DWIDTH 7 0
BBX 10 17 -2 -4
BITMAP
0D80
0D80
0000
39C0
39C0
3980
1B80
1B00
1F00
1E00
1E00
1C00
1C00
3800
3800
F000
E000
ENDCHAR
ENDFONT
